<?xml version="1.0" standalone="no"?>
<!DOCTYPE svg PUBLIC "-//W3C//DTD SVG 20010904//EN"
 "http://www.w3.org/TR/2001/REC-SVG-20010904/DTD/svg10.dtd">
<svg version="1.0" xmlns="http://www.w3.org/2000/svg"
 width="290.000000pt" height="290.000000pt" viewBox="0 0 290.000000 290.000000"
 preserveAspectRatio="xMidYMid meet">
<metadata>
Created by potrace 1.14, written by Peter Selinger 2001-2017
</metadata>
<g transform="translate(0.000000,290.000000) scale(0.100000,-0.100000)"
fill="#000000" stroke="none">
<path d="M222 2840 c0 -14 2 -19 5 -12 2 6 2 18 0 25 -3 6 -5 1 -5 -13z"/>
<path d="M310 2803 c1 -95 18 -186 48 -254 38 -86 50 -143 15 -69 -26 53 -27
54 -31 25 -2 -16 2 -48 8 -70 7 -22 16 -53 21 -69 12 -38 11 -49 -1 -41 -13 8
-13 -1 4 -56 22 -71 75 -169 118 -218 59 -68 33 -64 -29 4 -61 67 -86 109
-114 197 -21 68 -24 98 -9 98 6 0 2 12 -8 28 -11 15 -31 48 -46 74 -14 26 -31
50 -38 54 -7 5 -8 3 -3 -6 5 -9 4 -11 -3 -6 -7 4 -12 12 -12 17 0 15 -30 83
-35 78 -7 -8 40 -132 69 -182 16 -26 26 -50 23 -53 -3 -3 -10 4 -17 15 -6 13
-16 19 -23 15 -7 -4 -9 -4 -5 0 3 4 -9 40 -28 79 -19 40 -32 77 -30 84 3 6 2
13 -2 15 -14 6 -42 116 -43 169 -1 52 -1 53 -10 19 -10 -40 -2 -150 12 -150 5
0 9 -5 9 -11 0 -6 17 -50 39 -98 21 -47 41 -97 44 -111 4 -14 27 -52 52 -84
52 -67 61 -91 13 -31 -18 22 -41 48 -51 58 -10 10 -27 32 -37 50 -11 18 -20
27 -20 22 0 -11 43 -78 70 -110 10 -11 25 -32 34 -47 15 -23 15 -26 2 -24 -9
1 -19 6 -23 11 -4 4 -2 5 5 1 20 -11 14 9 -8 29 -16 15 -20 15 -15 3 4 -10 -1
-17 -17 -21 -13 -4 -24 -3 -26 2 -1 4 -9 17 -17 27 -13 17 -14 15 -3 -16 6
-19 18 -46 27 -59 14 -22 14 -23 -6 -17 -11 4 -28 3 -37 0 -15 -6 -11 -14 25
-50 24 -24 49 -44 55 -44 17 0 58 -54 45 -58 -6 -2 -9 -8 -5 -13 13 -21 -9 -7
-33 21 -13 17 -30 30 -36 30 -6 0 0 -12 14 -27 l24 -28 -25 20 c-14 11 -37 31
-53 44 -15 14 -27 19 -27 12 0 -7 18 -29 40 -48 22 -20 39 -43 38 -52 -2 -9 3
-15 11 -13 11 2 12 0 3 -11 -14 -16 4 -35 51 -55 34 -15 49 -15 24 -1 -9 6
-15 15 -11 20 4 6 11 5 21 -3 8 -6 22 -13 30 -14 8 -2 18 -6 21 -10 4 -4 -1
-4 -10 -1 -32 12 -19 -11 32 -54 28 -23 49 -44 47 -46 -2 -2 -29 8 -61 22 -31
14 -64 25 -74 25 -9 -1 21 -17 68 -36 47 -19 103 -43 125 -53 22 -10 49 -21
59 -25 32 -11 13 -15 -33 -6 -24 4 -46 12 -50 16 -9 14 -54 37 -46 25 3 -7 -3
-11 -17 -12 -19 -1 -17 -3 9 -10 49 -14 67 -53 29 -63 -29 -7 -141 11 -166 27
-25 15 -34 37 -15 37 7 0 17 5 20 10 4 7 -3 8 -22 4 -36 -9 -36 -9 -24 -32 8
-14 5 -47 -11 -123 -16 -79 -21 -142 -21 -259 -1 -228 33 -372 137 -578 122
-244 356 -461 616 -573 98 -42 104 -44 95 -29 -4 6 8 13 25 17 26 5 31 10 27
29 -4 25 24 39 42 21 8 -8 11 -3 11 16 0 15 4 27 10 27 5 0 26 25 46 55 37 55
54 73 34 35 -12 -22 -1 -27 18 -8 21 21 24 1 7 -47 -19 -57 -13 -70 10 -24 13
24 16 46 11 85 -4 32 -2 55 4 59 6 4 7 11 4 17 -4 6 -15 -3 -26 -23 l-19 -34
7 35 c3 19 17 46 31 60 25 25 25 25 13 2 -11 -22 -10 -23 9 -12 12 6 21 18 22
28 4 64 10 107 16 111 19 14 43 72 43 103 0 69 -12 108 -31 108 -11 0 -19 4
-19 9 0 5 -7 16 -15 24 -8 8 -21 47 -29 87 -17 82 -74 211 -75 171 -1 -32 38
-143 56 -157 7 -6 13 -24 13 -40 -1 -16 3 -58 8 -94 5 -36 6 -74 1 -85 -7 -19
-8 -19 -8 2 -1 32 -12 54 -24 46 -6 -3 -7 -1 -3 5 4 7 -9 43 -28 82 -19 39
-37 67 -39 63 -14 -24 -17 -102 -7 -189 7 -55 12 -106 13 -114 0 -8 4 -18 10
-21 5 -4 5 -9 -2 -13 -6 -4 -11 -2 -11 4 0 6 -5 8 -10 5 -5 -3 -10 -13 -10
-21 0 -8 -7 -31 -16 -52 l-16 -37 -19 70 c-10 38 -22 71 -27 73 -5 1 -17 8
-26 15 -17 12 -17 16 -1 71 9 31 19 55 23 52 3 -3 15 13 26 37 l21 42 3 -69
c2 -55 0 -70 -14 -81 -11 -7 -13 -14 -7 -18 6 -4 17 3 24 16 16 25 14 201 -1
192 -5 -3 -7 -12 -4 -19 3 -7 -2 -16 -12 -20 -13 -5 -14 -4 -6 7 7 8 8 17 4
21 -4 4 0 13 9 19 9 7 19 26 23 42 5 23 4 27 -5 15 -9 -12 -10 -10 -5 10 3 14
6 57 6 95 1 56 3 66 12 51 6 -11 8 -43 5 -78 -4 -42 -2 -58 6 -55 17 5 25 48
15 76 -5 15 -5 27 1 30 5 4 10 20 9 36 -1 62 2 73 19 71 9 -2 23 -14 31 -27
14 -24 14 -24 -7 1 -26 31 -27 17 -2 -24 11 -17 29 -56 41 -86 22 -56 48 -96
35 -52 -12 40 5 23 31 -30 39 -81 64 -124 64 -110 0 7 -9 32 -21 55 -12 23
-17 38 -11 32 5 -5 43 -73 83 -149 62 -119 179 -296 196 -296 11 0 -10 107
-28 138 -10 18 -14 30 -8 26 15 -9 5 38 -33 149 -17 48 -28 90 -25 93 3 3 12
-14 19 -38 l13 -43 6 50 6 50 1 -60 c0 -69 45 -201 93 -276 16 -25 29 -51 29
-57 0 -7 21 -36 48 -65 26 -30 53 -62 60 -73 7 -10 -1 8 -19 41 -17 33 -34 62
-38 65 -3 3 -7 12 -9 20 -1 8 -26 75 -56 147 -29 73 -50 133 -45 133 14 0 56
-70 85 -140 27 -67 52 -106 39 -60 -4 14 -13 35 -21 47 -8 12 -14 26 -14 30 0
11 44 -56 64 -97 9 -19 30 -51 48 -70 l30 -35 -26 38 c-15 20 -34 54 -42 75
l-15 37 41 -44 c52 -56 52 -47 0 15 -22 27 -61 90 -86 141 -42 85 -126 191
-145 186 -12 -4 -36 46 -44 90 -9 48 -47 161 -42 124 3 -16 1 -25 -3 -20 -4 4
-10 22 -12 38 -3 17 -3 25 -1 18 2 -7 10 -10 16 -8 7 3 32 -25 56 -60 24 -36
47 -65 51 -65 4 0 29 -16 55 -36 44 -34 47 -35 40 -13 -5 13 -9 33 -11 44 -1
11 -5 28 -10 39 -9 23 107 -64 135 -102 12 -15 24 -31 28 -37 5 -5 9 -33 10
-62 1 -28 11 -73 23 -100 22 -48 42 -153 30 -153 -3 0 -28 34 -55 75 -47 72
-67 96 -45 56 12 -24 13 -44 1 -37 -13 9 -20 56 -8 63 6 3 19 -5 30 -18 16
-19 19 -20 13 -5 -4 11 -11 40 -17 65 -13 60 -29 101 -41 101 -5 0 -6 -6 -2
-12 4 -8 3 -10 -2 -5 -5 5 -9 12 -9 15 -1 11 -37 63 -41 59 -10 -9 27 -75 49
-90 25 -16 43 -57 25 -57 -5 0 -17 4 -27 10 -17 8 -19 5 -19 -30 0 -22 3 -42
9 -45 5 -4 9 -12 9 -18 0 -7 -4 -6 -10 3 -13 20 -12 10 1 -28 9 -27 43 -49 52
-33 2 3 2 0 0 -7 -4 -16 20 -51 89 -135 26 -32 48 -64 48 -71 0 -22 132 -140
209 -186 41 -25 87 -58 102 -73 19 -19 35 -27 47 -23 11 4 31 2 46 -3 17 -7
26 -7 26 -1 0 6 -6 10 -13 10 -16 0 -101 89 -105 110 -6 26 -45 61 -62 55 -8
-3 5 14 29 39 24 25 48 43 52 40 4 -2 10 -18 14 -34 4 -16 11 -28 17 -27 6 1
13 -4 16 -12 3 -8 0 -11 -7 -7 -14 9 -14 6 4 -37 8 -19 22 -37 32 -40 10 -2
26 -8 35 -12 14 -5 17 -2 15 19 -1 15 -6 26 -10 26 -9 -1 -78 83 -96 117 -10
20 -3 32 63 117 89 114 153 228 196 351 17 49 33 91 35 94 3 2 11 -2 20 -9 13
-10 15 -9 15 8 0 12 -5 32 -11 46 -12 26 -4 100 10 91 12 -7 22 78 10 89 -5 6
-9 32 -9 58 0 36 4 48 15 48 8 0 15 4 15 9 0 5 8 11 19 14 10 2 20 16 23 30 4
21 0 26 -33 37 -32 11 -38 17 -43 53 -6 34 -3 44 17 66 35 37 59 91 42 91 -7
0 -23 8 -35 18 -22 18 -22 19 -5 52 l17 33 -39 -24 c-21 -13 -45 -31 -53 -40
-8 -9 -42 -27 -75 -39 -77 -28 -89 -31 -155 -37 l-55 -4 24 19 c14 11 43 23
65 26 59 10 186 54 203 71 8 8 21 15 28 15 8 0 16 4 19 9 3 5 -6 7 -22 5 -15
-2 -46 -7 -69 -10 -24 -3 -43 -2 -43 3 0 16 84 65 120 70 74 9 81 12 68 27 -9
10 -18 11 -31 4 -17 -8 -18 -7 -12 14 4 12 18 35 32 49 14 15 36 51 50 80 l24
54 -30 -29 c-17 -17 -31 -35 -31 -42 0 -29 -216 -174 -259 -174 -19 0 1 18 82
77 59 42 105 78 103 81 -2 2 -14 -1 -25 -8 -35 -18 -23 -3 14 19 33 19 48 51
24 51 -6 0 -8 9 -4 21 7 21 7 21 -18 3 -25 -19 -58 -62 -38 -49 6 3 11 4 11 2
0 -12 -140 -87 -170 -92 -32 -5 -31 -4 20 23 54 30 327 281 371 343 37 52 14
42 -27 -11 -21 -27 -42 -50 -46 -50 -4 0 15 38 42 84 37 63 50 94 49 123 0 36
-1 35 -30 -36 -16 -40 -43 -92 -59 -115 -34 -51 -155 -166 -174 -166 -23 0
-26 13 -9 34 26 29 -57 -36 -92 -74 -16 -17 -43 -41 -60 -53 l-30 -22 23 30
c100 132 172 236 172 250 0 5 -9 -4 -19 -21 -11 -18 -24 -35 -31 -39 -6 -4 5
18 24 48 19 30 38 66 42 81 3 14 10 26 14 26 17 0 21 -20 9 -41 -8 -16 -8 -20
1 -14 20 12 43 77 30 85 -6 4 -8 15 -4 25 5 13 4 16 -4 11 -11 -6 -17 12 -13
37 1 5 -3 6 -9 2 -6 -3 -7 -11 -4 -17 5 -7 2 -8 -5 -3 -7 4 -22 -1 -34 -13
-12 -11 -67 -46 -122 -77 -55 -32 -110 -67 -122 -78 -13 -11 -23 -16 -23 -11
0 12 38 48 90 86 43 31 82 100 121 215 29 87 37 143 20 143 -13 0 -21 -26 -11
-36 15 -17 -34 -98 -105 -173 -84 -88 -208 -191 -238 -197 -12 -2 -27 -11 -33
-19 -7 -9 -16 -15 -20 -14 -20 3 -35 -2 -30 -10 6 -9 -55 -58 -154 -126 -32
-22 -47 -36 -35 -35 38 4 65 0 65 -10 0 -5 -18 -10 -39 -10 -22 0 -42 -4 -45
-9 -9 -14 20 -32 40 -25 18 5 18 5 0 -10 -18 -14 -21 -14 -38 1 -10 9 -18 14
-19 12 0 -2 -2 -12 -4 -23 -2 -10 -20 -33 -39 -51 -38 -35 -47 -58 -18 -48 10
4 4 -8 -16 -29 -28 -29 -31 -36 -17 -42 11 -4 14 -2 9 7 -5 8 -2 7 9 -2 15
-12 17 -11 18 3 3 30 4 34 13 43 5 4 6 3 3 -4 -4 -6 -2 -13 5 -15 22 -8 -18
-56 -52 -63 -33 -7 -40 -21 -12 -28 16 -4 16 -5 0 -6 -10 0 -18 -5 -18 -11 0
-10 -71 -32 -79 -24 -3 2 12 18 32 35 20 17 37 37 37 46 0 11 -6 9 -20 -8 -24
-29 -26 -18 -4 17 9 13 14 27 12 30 -8 7 -38 -7 -38 -18 0 -5 5 -6 10 -3 16
10 11 -11 -5 -25 -11 -9 -13 -15 -5 -20 8 -5 3 -14 -14 -27 l-25 -20 23 -22
c12 -11 28 -21 35 -21 7 0 11 -6 8 -14 -3 -8 -1 -17 6 -19 7 -3 -5 -3 -25 -1
-41 4 -50 -9 -18 -28 27 -17 25 -25 -12 -48 -25 -15 -28 -20 -14 -20 19 0 19
-1 2 -13 -10 -7 -18 -28 -19 -47 -2 -34 -4 -35 -42 -36 -69 -2 -75 -4 -75 -15
0 -7 10 -9 26 -5 19 5 25 3 21 -6 -5 -15 -76 -13 -91 3 -6 5 -21 9 -34 9 -21
0 -22 -2 -12 -15 7 -8 18 -15 25 -15 7 0 18 -7 25 -15 17 -21 -3 -20 -37 2
-15 10 -33 18 -41 18 -9 0 -17 6 -20 14 -3 10 0 12 11 8 11 -4 14 -2 10 8 -3
8 -9 12 -15 9 -5 -3 -19 2 -31 13 -19 15 -20 16 -8 1 9 -12 10 -18 2 -18 -6 0
-20 15 -31 33 -21 34 -28 21 -9 -16 8 -14 8 -19 1 -12 -18 16 -47 91 -30 78
11 -10 13 -5 10 28 -2 21 -8 42 -13 45 -5 3 -9 13 -9 22 1 15 2 15 15 -2 19
-25 19 -21 -4 48 -14 41 -15 53 -5 45 25 -21 16 20 -11 49 -14 15 -23 33 -20
40 3 7 0 10 -5 7 -13 -8 -13 5 0 25 8 12 10 12 10 1 0 -8 2 -12 5 -9 3 3 3 13
-1 22 -5 14 -10 12 -26 -15 -10 -17 -17 -34 -14 -37 4 -3 6 -1 6 4 0 5 7 -4
15 -20 17 -32 20 -51 4 -23 -6 9 -15 14 -21 11 -7 -5 -8 -2 -3 6 5 9 4 11 -3
6 -6 -4 -10 -20 -8 -35 2 -16 -3 -39 -10 -52 -7 -13 -13 -20 -14 -16 0 5 5 17
10 28 6 10 8 19 5 19 -3 0 -16 -21 -29 -47 -13 -27 -31 -63 -41 -81 -10 -20
-15 -47 -13 -69 4 -31 3 -33 -9 -17 -7 10 -13 22 -13 26 0 5 -8 5 -17 -1 -14
-7 -18 -23 -18 -62 0 -29 -5 -54 -11 -56 -7 -2 -9 8 -6 27 3 19 0 30 -8 30 -8
0 -9 4 -3 13 5 6 7 23 3 37 -4 17 -8 21 -14 12 -10 -16 -66 -16 -67 1 -1 6 -3
19 -4 27 -1 8 -3 21 -4 28 0 6 -12 12 -26 12 -18 0 -23 4 -18 16 8 22 -22 44
-58 44 -15 0 -31 5 -34 10 -4 6 6 10 22 10 27 0 27 0 6 15 -12 8 -28 12 -37 9
-9 -3 -16 -2 -16 4 0 14 37 21 49 9 6 -6 13 -8 16 -6 3 3 -7 16 -22 30 -20 18
-25 20 -20 7 5 -13 1 -18 -12 -18 -11 0 -22 -6 -24 -12 -7 -16 -27 9 -27 32 0
11 3 11 12 2 7 -7 18 -12 26 -12 9 0 6 7 -9 21 -16 13 -20 22 -12 25 8 4 3 14
-15 29 -15 13 -24 27 -20 31 5 4 18 -1 30 -12 l23 -19 -22 26 c-27 30 -29 44
-5 34 10 -3 2 10 -18 32 -19 21 -37 40 -39 43 -2 3 -1 -3 2 -12 4 -10 3 -18
-2 -18 -5 0 -11 9 -14 20 -3 11 -1 20 4 20 17 0 9 18 -31 69 -22 28 -37 51
-33 51 5 0 1 5 -7 10 -8 5 -15 13 -15 17 -1 16 -27 55 -32 49 -4 -3 2 -15 12
-26 10 -11 14 -20 8 -20 -13 0 -41 31 -45 50 -2 8 -17 35 -34 60 -18 25 -55
97 -84 160 -45 99 -52 120 -48 162 5 47 -5 66 -14 30 -6 -23 -3 -97 6 -137 7
-29 7 -29 -9 4 -8 19 -18 52 -22 75 -3 23 -14 62 -24 87 -14 37 -39 170 -39
210 0 5 -7 9 -15 9 -12 0 -15 -13 -15 -57z m134 -443 l7 -25 -15 25 c-17 28
-21 50 -7 35 5 -6 12 -21 15 -35z m2097 -120 c-50 -50 -91 -95 -91 -100 0 -5
-17 -18 -38 -29 -21 -11 -44 -26 -50 -34 -9 -11 -6 -13 18 -9 19 3 30 0 30 -8
0 -7 -8 -9 -20 -5 -21 7 -60 -10 -73 -31 -4 -8 -13 -14 -19 -14 -7 0 0 13 15
28 15 15 27 32 27 38 0 16 58 71 113 108 28 20 79 60 112 91 33 30 62 54 64
55 2 0 -37 -41 -88 -90z m-341 -15 c-13 -14 -26 -23 -28 -20 -7 7 29 45 41 45
6 0 0 -11 -13 -25z m-1630 -60 c5 -3 10 -11 10 -16 0 -19 -20 2 -40 41 -11 22
-20 43 -20 47 1 4 10 -9 20 -29 11 -20 24 -40 30 -43z m1850 67 c0 -4 -20 -15
-45 -24 l-45 -17 16 25 c11 16 26 24 45 24 16 0 29 -4 29 -8z m-281 -49 c-31
-35 -41 -43 -58 -43 -15 0 58 69 73 70 5 0 -1 -12 -15 -27z m-1795 -23 c15
-23 44 -60 64 -82 l37 -42 -47 32 c-40 27 -114 110 -80 88 15 -9 15 -1 2 25
-18 33 -4 21 24 -21z m1906 15 c-7 -8 -18 -15 -24 -15 -6 0 -2 7 8 15 25 19
32 19 16 0z m-50 -10 c0 -2 -15 -12 -32 -20 l-33 -16 24 21 c22 19 41 26 41
15z m-1754 -207 c35 -23 62 -44 60 -45 -2 -2 -28 8 -60 22 l-56 25 19 -38 c11
-21 40 -57 65 -80 25 -23 41 -42 36 -42 -32 0 -130 122 -130 162 0 7 -19 36
-43 63 -71 84 -75 93 -13 33 33 -31 88 -76 122 -100z m141 114 c15 -15 39 -35
53 -45 24 -16 23 -16 -10 0 -19 9 -46 30 -58 45 -30 36 -22 36 15 0z m1695
-22 c-24 -22 -47 -40 -52 -40 -4 0 -15 -3 -24 -6 -9 -3 -16 -1 -16 4 0 11 106
80 125 81 6 0 -9 -17 -33 -39z m163 30 c-3 -5 -12 -10 -18 -10 -7 0 -6 4 3 10
19 12 23 12 15 0z m-1834 -180 c8 -10 33 -41 57 -68 31 -37 37 -49 23 -45 -11
3 -26 12 -35 21 -14 16 -16 21 -16 42 0 5 -18 14 -40 20 -37 10 -64 30 -41 30
24 0 8 30 -33 61 -24 19 -49 42 -56 53 -14 22 123 -87 141 -114z m1529 105 c0
-2 -10 -9 -22 -15 -22 -11 -22 -10 -4 4 21 17 26 19 26 11z m0 -49 c0 -3 -4
-8 -10 -11 -5 -3 -10 -1 -10 4 0 6 5 11 10 11 6 0 10 -2 10 -4z m165 -41 c-16
-14 -37 -32 -46 -40 -15 -14 -81 -45 -96 -45 -11 0 150 109 162 109 6 0 -3
-11 -20 -24z m-370 -4 c-3 -6 -11 -11 -17 -11 -6 0 -6 6 2 15 14 17 26 13 15
-4z m-1160 -1 c8 -13 -15 -13 -35 0 -12 8 -11 10 7 10 12 0 25 -4 28 -10z
m1641 -35 c-12 -17 -12 -25 -3 -28 16 -6 0 -22 -30 -32 -14 -4 -23 -2 -23 5 0
6 10 14 23 19 12 5 20 11 18 15 -1 4 3 21 10 38 7 17 15 26 17 19 2 -6 -3 -22
-12 -36z m298 4 c-10 -11 -28 -25 -39 -31 -12 -5 -7 3 13 21 37 35 55 42 26
10z m-69 -49 c-3 -5 -12 -10 -18 -10 -7 0 -6 4 3 10 19 12 23 12 15 0z m-145
-58 c0 -11 -78 -47 -86 -40 -2 3 14 15 38 27 49 24 48 24 48 13z m-160 -32 c0
-5 -6 -10 -14 -10 -8 0 -18 5 -21 10 -3 6 3 10 14 10 12 0 21 -4 21 -10z
m-464 -39 c-9 -13 -46 -15 -46 -1 0 14 34 30 44 20 4 -4 5 -13 2 -19z m584 -6
c-19 -20 -32 -25 -69 -24 l-46 2 48 6 c26 4 55 15 64 24 27 27 29 20 3 -8z
m-1921 -18 c0 -9 -2 -9 -6 1 -2 6 -11 12 -19 12 -8 0 -14 5 -14 10 0 7 6 7 20
0 11 -6 20 -16 19 -23z m415 -18 c-7 -12 -54 -12 -54 0 0 11 30 19 47 13 7 -2
10 -8 7 -13z m302 -5 c-4 -9 -9 -15 -11 -12 -3 3 -3 13 1 22 4 9 9 15 11 12 3
-3 3 -13 -1 -22z m944 17 c0 -5 -12 -17 -27 -26 l-28 -18 24 27 c26 28 31 31
31 17z m-1794 -9 c6 -4 13 -14 17 -24 5 -14 12 -15 44 -6 26 6 48 6 67 -2 28
-10 28 -11 10 -25 -15 -12 -16 -14 -4 -15 9 0 22 6 29 13 10 10 11 8 5 -7 -5
-13 -4 -17 4 -12 7 4 12 2 12 -3 0 -15 -11 -14 -88 10 -86 26 -142 50 -142 60
0 4 -8 10 -17 12 -10 3 -2 5 17 6 19 0 40 -3 46 -7z m101 2 c-3 -3 -12 -4 -19
-1 -8 3 -5 6 6 6 11 1 17 -2 13 -5z m378 -24 c3 -5 1 -10 -4 -10 -6 0 -11 5
-11 10 0 6 2 10 4 10 3 0 8 -4 11 -10z m940 0 c-3 -5 -15 -15 -26 -20 -15 -8
-19 -7 -19 4 0 13 14 21 43 25 5 0 5 -3 2 -9z m-565 -24 c0 -3 -4 -8 -10 -11
-5 -3 -10 -1 -10 4 0 6 5 11 10 11 6 0 10 -2 10 -4z m906 -11 c-11 -8 -27 -15
-35 -15 -9 1 -2 7 14 15 39 18 44 18 21 0z m-945 -18 c-10 -9 -11 -8 -5 6 3
10 9 15 12 12 3 -3 0 -11 -7 -18z m1149 19 c0 -2 -9 -6 -20 -9 -11 -3 -18 -1
-14 4 5 9 34 13 34 5z m-1905 -35 c120 -23 116 -21 85 -31 -15 -5 2 -6 45 -4
81 5 53 -10 -43 -22 -50 -6 -53 -8 -32 -16 14 -5 37 -8 52 -6 23 4 25 2 18
-13 -20 -36 -77 -39 -108 -6 -12 13 -19 27 -15 32 5 4 3 5 -4 1 -6 -3 -14 -2
-18 3 -3 6 13 12 37 14 24 2 2 4 -49 5 -82 2 -95 5 -120 27 -24 21 -26 26 -13
35 8 6 26 8 40 5 14 -2 70 -13 125 -24z m528 14 c1 -5 -14 -11 -33 -13 -33 -2
-34 -2 -15 13 21 17 45 17 48 0z m1702 -15 c-16 -30 -89 -80 -118 -80 -10 0
-17 7 -17 15 0 11 -7 14 -25 9 -14 -4 -38 -7 -53 -8 -15 -1 -44 -10 -66 -19
-50 -22 -110 -21 -166 4 -37 16 -39 19 -15 15 54 -8 188 15 292 50 110 37 138
42 127 22 -4 -7 2 -5 12 5 31 29 47 22 29 -13z m-338 -6 c-3 -3 -12 -4 -19 -1
-8 3 -5 6 6 6 11 1 17 -2 13 -5z m-613 -16 c-6 -10 -4 -10 7 0 19 17 59 15 59
-4 0 -12 -9 -14 -42 -12 -39 3 -69 28 -33 28 10 0 14 -5 9 -12z m-709 -7 c6
-11 -33 -26 -43 -16 -4 3 0 10 8 15 19 12 27 12 35 1z m155 -48 c-1 -10 -39
39 -40 51 0 5 9 -3 20 -17 11 -14 20 -29 20 -34z m-120 4 c8 -3 0 -6 -17 -6
-18 -1 -33 3 -33 8 0 12 23 20 30 11 3 -4 12 -10 20 -13z m760 -11 c0 -2 -7
-6 -15 -10 -8 -3 -15 -1 -15 4 0 6 7 10 15 10 8 0 15 -2 15 -4z m-1068 -19
c-14 -7 -33 -6 -54 0 -31 10 -30 10 21 10 44 0 51 -2 33 -10z m1903 3 c14 -23
-14 -38 -53 -29 -52 12 -175 11 -144 -1 28 -12 28 -28 -1 -35 -26 -7 -99 15
-104 31 -6 19 27 27 142 34 61 4 120 7 132 8 12 1 25 -3 28 -8z m-1488 -22
c-3 -8 -6 -5 -6 6 -1 11 2 17 5 13 3 -3 4 -12 1 -19z m-644 -15 c4 -3 -2 -12
-13 -20 -34 -24 -22 -32 19 -15 32 14 36 19 23 25 -13 5 -11 6 5 3 13 -2 53 0
90 4 37 5 68 8 69 7 1 -1 -9 -15 -23 -32 -16 -19 -23 -23 -19 -11 5 16 4 17
-9 6 -8 -7 -15 -20 -15 -29 0 -9 -7 -28 -14 -44 -15 -27 -14 -27 12 -21 15 3
33 7 40 10 23 7 12 -16 -27 -55 -38 -38 -90 -74 -77 -53 3 5 -4 12 -15 15 -14
4 -18 10 -13 18 4 8 11 32 14 56 6 39 5 41 -12 32 -13 -7 -29 -7 -50 0 -17 6
-44 11 -59 11 -15 0 -31 5 -34 10 -3 6 0 10 8 10 7 0 23 18 36 40 21 37 47 51
64 33z m1052 -3 c3 -5 2 -10 -4 -10 -5 0 -13 5 -16 10 -3 6 -2 10 4 10 5 0 13
-4 16 -10z m658 -4 c24 -18 21 -26 -7 -26 -27 0 -41 14 -31 30 8 13 16 12 38
-4z m-989 -22 c3 -8 2 -12 -4 -9 -6 3 -10 10 -10 16 0 14 7 11 14 -7z m-441
-1 c-7 -2 -19 -2 -25 0 -7 3 -2 5 12 5 14 0 19 -2 13 -5z m351 -9 c3 -8 2 -12
-4 -9 -6 3 -10 10 -10 16 0 14 7 11 14 -7z m1616 1 c0 -23 -18 -26 -95 -16
-55 7 -61 9 -30 10 22 2 49 6 60 11 33 14 65 12 65 -5z m-1580 -40 c0 -5 -5
-3 -10 5 -5 8 -10 20 -10 25 0 6 5 3 10 -5 5 -8 10 -19 10 -25z m325 15 c3 -5
2 -10 -4 -10 -5 0 -13 5 -16 10 -3 6 -2 10 4 10 5 0 13 -4 16 -10z m785 2 c0
-12 61 -33 105 -36 54 -4 116 -17 138 -28 29 -15 38 -51 16 -65 -20 -15 -50
-7 -43 11 8 22 -18 34 -86 39 -70 5 -159 25 -174 38 -5 4 -17 4 -28 -2 -27
-15 -22 2 10 28 26 22 62 31 62 15z m-264 -37 c-11 -8 -25 -15 -30 -15 -6 0
-2 7 8 15 11 8 25 15 30 15 6 0 2 -7 -8 -15z m-1241 -55 c-14 -27 -25 -56 -25
-64 0 -27 -32 -96 -41 -90 -5 3 -9 -4 -9 -15 0 -14 5 -19 15 -15 9 4 15 0 15
-10 0 -22 8 -20 46 9 33 26 53 28 66 10 4 -5 8 1 8 14 0 13 3 21 6 18 7 -6 10
-28 13 -82 l2 -30 15 28 c8 15 19 25 24 22 5 -3 21 2 35 11 24 15 25 15 25 -3
0 -21 -20 -54 -58 -95 -14 -16 -23 -28 -19 -28 13 0 57 44 57 57 0 7 4 13 9
13 17 0 -1 -134 -23 -170 -11 -19 -21 -38 -21 -42 0 -16 -15 -19 -21 -4 -9 23
-19 20 -32 -9 -14 -31 -37 -32 -56 -2 -13 19 -13 28 -1 62 11 35 11 42 -2 57
-15 17 -11 50 10 76 6 7 11 26 11 43 2 53 -27 28 -59 -53 -16 -43 -33 -78 -36
-78 -13 0 -57 136 -61 188 -1 7 -17 12 -45 12 -42 0 -43 1 -36 28 3 15 6 35 5
45 0 9 3 15 9 12 5 -4 9 -1 9 5 0 6 11 23 25 38 29 31 34 13 7 -26 -29 -41
-36 -60 -13 -32 11 14 21 28 21 32 0 3 24 20 54 37 30 17 61 42 70 56 27 42
28 28 1 -25z m1397 23 c-6 -3 -10 -8 -8 -12 2 -3 -14 -4 -37 -2 l-42 5 38 6
c20 4 40 10 44 13 3 4 9 4 12 1 3 -4 0 -9 -7 -11z m-626 -64 c11 -23 12 -29 2
-24 -27 16 -47 38 -42 46 10 17 23 9 40 -22z m721 5 c18 -8 35 -19 39 -25 11
-18 -18 -30 -56 -23 -34 5 -93 50 -85 64 6 10 65 1 102 -16z m18 16 c3 -6 -1
-7 -9 -4 -18 7 -21 14 -7 14 6 0 13 -4 16 -10z m122 -17 c24 -3 43 -9 43 -13
0 -10 -103 10 -115 23 -7 7 -4 8 10 3 10 -4 38 -10 62 -13z m-1471 -40 c-11
-11 -17 4 -9 23 7 18 8 18 11 1 2 -10 1 -21 -2 -24z m-141 -2 c-18 -35 -31
-45 -40 -31 -9 15 22 60 40 60 14 0 14 -3 0 -29z m1245 -16 c17 -20 19 -25 6
-15 -18 14 -19 13 -12 -5 5 -13 4 -17 -3 -10 -5 6 -13 24 -17 40 -4 17 -5 28
-3 25 2 -3 15 -18 29 -35z m300 -44 c14 -10 38 -44 55 -77 29 -58 30 -58 35
-29 l6 30 7 -34 c4 -18 7 -47 7 -64 0 -26 -2 -28 -12 -16 -7 9 -26 23 -43 33
l-30 17 30 -25 c44 -38 18 -31 -43 10 -54 38 -65 58 -15 29 27 -16 27 -16 6 0
-13 10 -23 23 -23 30 0 8 -6 16 -12 18 -7 3 7 6 31 6 l44 1 -22 24 c-13 14
-35 26 -50 28 -14 2 -24 7 -21 12 3 5 -8 16 -25 23 l-30 14 40 -6 c22 -3 51
-14 65 -24z m-1399 -18 c-10 -17 -10 -16 -11 3 0 23 13 41 18 25 2 -6 -1 -18
-7 -28z m795 16 c19 -11 34 -22 34 -24 0 -9 -66 16 -79 30 -23 23 4 19 45 -6z
m498 -10 c14 -17 26 -37 26 -45 0 -8 7 -17 15 -20 8 -4 15 -10 15 -14 0 -4
-29 4 -65 18 -87 35 -86 57 2 26 12 -5 6 6 -16 29 -25 26 -30 37 -19 37 9 0
28 -14 42 -31z m276 -41 c0 -22 -7 -23 -26 -4 -16 17 -19 30 -4 21 18 -11 11
8 -12 34 -19 21 -17 20 10 -3 17 -17 32 -38 32 -48z m30 56 c0 -8 -4 -12 -10
-9 -5 3 -10 10 -10 16 0 5 5 9 10 9 6 0 10 -7 10 -16z m-1063 -71 c-2 -16 -4
-3 -4 27 0 30 2 43 4 28 2 -16 2 -40 0 -55z m643 67 c8 -5 12 -11 10 -14 -3
-2 -14 2 -24 10 -22 15 -10 19 14 4z m-116 -56 c19 -12 29 -13 45 -5 26 14 31
14 31 -2 0 -7 10 -17 22 -22 13 -6 28 -20 34 -32 6 -13 13 -20 16 -17 3 3 5
-6 4 -19 l-1 -24 -35 23 c-19 12 -48 26 -63 30 -16 3 -32 16 -37 28 -4 12 -26
35 -49 50 -44 31 -57 49 -16 22 14 -9 36 -23 49 -32z m112 18 c-4 -3 -14 2
-24 12 -16 18 -16 18 6 6 13 -6 21 -14 18 -18z m-286 -29 c0 -13 -3 -13 -15
-3 -8 7 -15 19 -15 27 0 13 3 13 15 3 8 -7 15 -19 15 -27z m254 -118 c70 -72
187 -241 180 -259 -3 -9 -10 -16 -14 -16 -22 0 -135 131 -165 191 -18 36 -40
71 -49 78 -19 16 -22 1 -4 -17 7 -7 9 -12 6 -12 -3 0 -18 17 -34 38 -18 24
-21 31 -7 19 20 -17 21 -17 21 8 0 14 -5 25 -10 25 -5 0 -6 -5 -2 -12 12 -19
-48 27 -76 58 -18 20 -12 17 25 -12 49 -38 48 -30 -4 31 -32 37 67 -52 133
-120z m129 54 c20 -21 37 -42 37 -49 0 -6 7 -13 15 -16 8 -4 13 -10 10 -14 -3
-5 8 -17 25 -26 34 -21 36 -29 14 -51 -14 -14 -18 -13 -42 8 -26 24 -26 23 2
-11 16 -19 37 -41 47 -47 15 -11 19 -9 27 15 6 15 11 22 11 15 1 -6 -4 -24 -9
-39 l-11 -28 -59 59 c-46 45 -59 64 -54 80 4 16 3 17 -5 5 -6 -8 -11 -10 -12
-5 -1 6 -2 16 -3 22 0 7 -5 13 -10 12 -15 -1 -34 45 -22 53 7 5 1 26 -17 60
-23 45 -24 48 -5 23 13 -16 40 -46 61 -66z m-1147 18 c-9 -31 -13 -64 -10 -74
5 -15 4 -15 -5 -3 -20 28 -13 -26 10 -73 21 -43 21 -45 3 -72 l-18 -28 -7 25
c-3 13 -12 34 -18 46 -7 14 -8 28 -3 40 5 9 6 26 2 36 -6 17 -7 18 -13 3 -14
-37 -20 -117 -8 -117 7 0 9 10 6 28 -4 23 -3 22 11 -8 10 -22 12 -36 5 -38 -5
-2 -7 -10 -4 -19 4 -11 2 -14 -5 -9 -7 4 -12 14 -12 22 0 8 -4 14 -9 14 -5 0
-3 -17 4 -37 14 -42 18 -69 16 -126 -1 -35 -3 -37 -27 -33 -25 5 -42 20 -63
56 -6 10 -4 46 6 95 15 85 31 120 25 57 -6 -63 16 -16 29 63 6 38 17 81 25 95
l13 25 2 -25 c1 -17 7 -5 20 35 27 84 29 89 35 82 3 -3 -1 -30 -10 -60z m1054
53 c0 -5 -2 -10 -4 -10 -3 0 -8 5 -11 10 -3 6 -1 10 4 10 6 0 11 -4 11 -10z
m-185 -89 c22 -33 43 -57 47 -55 4 3 18 -17 32 -43 14 -26 25 -44 26 -40 0 5
-5 17 -10 28 -6 10 -9 19 -6 19 2 0 18 -24 35 -54 17 -30 47 -66 67 -81 19
-15 33 -29 31 -31 -10 -10 -77 43 -93 73 -10 18 -20 31 -21 29 -5 -5 48 -128
62 -146 7 -8 15 -24 18 -35 3 -11 13 -38 21 -60 8 -22 15 -65 15 -95 l0 -55
-23 27 c-13 15 -27 24 -32 20 -4 -4 -4 -2 -1 4 3 6 -1 21 -10 34 -12 16 -16
42 -14 89 1 36 -2 77 -8 91 -9 23 -10 21 -10 -17 -1 -55 -16 -62 -54 -25 -24
24 -32 43 -38 91 -5 34 -17 86 -27 116 -11 30 -15 55 -10 55 4 0 -6 28 -24 63
-43 81 -44 84 -27 70 8 -6 32 -39 54 -72z m637 39 c19 -17 19 -20 4 -26 -19
-7 -46 12 -46 32 0 20 17 17 42 -6z m-1442 -38 c-5 -2 -8 -8 -5 -12 8 -13 -16
-103 -31 -120 -12 -12 -14 -12 -14 2 0 9 -3 24 -7 34 -4 11 -3 15 4 11 16 -10
45 66 29 75 -8 5 -7 8 3 8 9 0 11 7 8 23 -6 22 -6 22 9 2 9 -12 11 -21 4 -23z
m147 -24 c-3 -8 -6 -5 -6 6 -1 11 2 17 5 13 3 -3 4 -12 1 -19z m-717 -75 c-19
-104 -24 -118 -48 -121 -18 -3 -22 2 -22 26 0 53 60 185 77 168 3 -3 0 -36 -7
-73z m528 41 c-3 -14 -5 -12 -10 9 -3 19 -2 25 4 19 6 -6 8 -18 6 -28z m1512
-41 c0 -13 -5 -23 -10 -23 -16 0 -34 46 -26 67 7 17 8 17 22 -1 8 -11 14 -30
14 -43z m-901 -27 c55 -63 71 -100 20 -45 -17 18 -37 42 -45 53 -8 11 -14 15
-14 9 0 -6 11 -25 25 -41 30 -36 33 -52 4 -26 -27 24 -58 85 -52 102 3 7 6 12
8 10 1 -2 26 -30 54 -62z m-243 22 c14 -28 15 -31 2 -20 -14 11 -31 52 -22 52
2 0 11 -15 20 -32z m981 0 c-3 -7 -5 -2 -5 12 0 14 2 19 5 13 2 -7 2 -19 0
-25z m32 -120 c1 -30 -10 -36 -28 -15 -6 9 -8 33 -4 68 l7 54 12 -40 c7 -22
13 -52 13 -67z m-1189 -50 c0 -5 -4 -8 -10 -8 -5 0 -10 10 -10 23 0 18 2 19
10 7 5 -8 10 -18 10 -22z m521 -33 l10 -20 -16 20 c-9 11 -21 29 -26 40 l-10
20 16 -20 c9 -11 21 -29 26 -40z m364 14 c11 -17 -1 -21 -15 -4 -8 9 -8 15 -2
15 6 0 14 -5 17 -11z m-835 -35 c0 -19 -5 -45 -12 -57 -11 -21 -11 -21 -19 -2
-6 18 -4 48 7 83 8 26 24 10 24 -24z m-466 -150 c3 -8 2 -14 -3 -14 -15 0 -92
73 -107 103 -15 27 -10 25 44 -22 33 -29 63 -59 66 -67z m909 3 c-8 -12 -23
14 -22 38 0 18 1 17 13 -5 8 -14 12 -29 9 -33z m500 6 c4 -19 2 -33 -3 -33 -6
0 -10 17 -10 37 0 43 5 41 13 -4z m-223 -64 c0 -6 -4 -7 -10 -4 -5 3 -10 11
-10 16 0 6 5 7 10 4 6 -3 10 -11 10 -16z m-861 -28 c11 -7 7 -22 -24 -76 -26
-47 -40 -64 -48 -56 -7 7 -2 30 17 76 29 68 32 70 55 56z m946 -31 c3 -5 1
-10 -4 -10 -6 0 -11 5 -11 10 0 6 2 10 4 10 3 0 8 -4 11 -10z m-1322 -71 c-11
-11 -16 48 -6 64 5 7 9 -1 11 -22 2 -18 0 -37 -5 -42z m1618 0 c25 -32 28 -39
12 -31 -26 14 -65 72 -49 72 2 0 19 -19 37 -41z m-1351 -43 c0 -14 -11 -38
-25 -53 l-24 -28 16 53 c18 55 33 68 33 28z"/>
<path d="M650 1826 c0 -2 8 -10 18 -17 15 -13 16 -12 3 4 -13 16 -21 21 -21
13z"/>
<path d="M2495 1525 c-39 -17 -21 -18 25 0 19 7 28 14 20 14 -8 0 -28 -6 -45
-14z"/>
<path d="M2415 1430 c11 -5 27 -9 35 -9 13 -1 13 0 0 9 -8 5 -24 9 -35 9 l-20
0 20 -9z"/>
<path d="M2265 1350 c-4 -6 -4 -10 -1 -10 2 0 11 -3 20 -6 9 -3 16 -2 16 4 0
14 -28 23 -35 12z"/>
<path d="M953 1059 c-13 -5 -23 -11 -23 -13 0 -3 8 -3 18 1 15 6 15 4 -3 -18
-16 -20 -15 -20 10 3 32 30 31 40 -2 27z"/>
<path d="M845 820 c15 -17 35 -19 35 -4 0 3 -5 2 -10 -1 -6 -3 -13 1 -16 9 -3
9 -11 16 -17 16 -5 0 -2 -9 8 -20z"/>
<path d="M2221 984 c0 -11 3 -14 6 -6 3 7 2 16 -1 19 -3 4 -6 -2 -5 -13z"/>
<path d="M2240 961 c0 -5 7 -12 16 -15 14 -5 15 -4 4 9 -14 17 -20 19 -20 6z"/>
<path d="M987 740 c-3 -11 -3 -20 -1 -20 2 0 8 9 14 20 6 11 7 20 2 20 -6 0
-12 -9 -15 -20z"/>
<path d="M2021 855 c0 -5 6 -21 14 -35 8 -14 14 -20 14 -15 0 6 -6 21 -14 35
-8 14 -14 21 -14 15z"/>
<path d="M2713 2842 c-3 -13 -21 -55 -40 -95 -36 -73 -68 -176 -58 -185 3 -3
5 2 5 10 0 8 11 32 25 53 16 23 23 44 20 56 -4 12 -2 18 5 17 12 -3 64 151 55
161 -3 3 -8 -5 -12 -17z m-62 -185 c-10 -9 -11 -8 -5 6 3 10 9 15 12 12 3 -3
0 -11 -7 -18z"/>
<path d="M2750 2818 c-28 -109 -96 -236 -204 -377 -8 -11 -8 -13 2 -7 24 14
12 -12 -14 -29 -14 -9 -23 -19 -21 -22 13 -12 227 157 227 179 0 6 -7 5 -17
-3 -15 -12 -15 -10 1 8 10 12 23 21 29 20 14 -3 78 84 99 133 21 50 15 52 -12
3 -11 -21 -33 -53 -49 -72 -24 -27 -33 -32 -44 -23 -8 7 -17 9 -20 5 -14 -13
-6 21 23 104 17 46 30 93 30 104 0 35 -19 20 -30 -23z m-119 -295 c-5 -10 -24
-34 -41 -53 -32 -36 -24 -19 19 38 27 35 37 42 22 15z"/>
<path d="M144 2809 c-4 -7 -3 -9 4 -5 6 3 13 -2 15 -11 4 -16 5 -16 6 -1 1 21
-15 32 -25 17z"/>
<path d="M233 2755 c0 -33 2 -45 4 -27 2 18 2 45 0 60 -2 15 -4 0 -4 -33z"/>
<path d="M2892 2743 c-6 -72 -177 -428 -263 -547 -28 -37 -48 -70 -45 -73 2
-3 9 5 15 16 7 11 26 31 44 43 18 13 65 58 105 100 39 42 72 73 72 68 0 -5 -4
-12 -10 -15 -5 -3 -15 -16 -21 -28 -20 -39 16 2 40 46 12 21 29 50 38 64 17
25 17 26 -4 15 -11 -6 -22 -9 -25 -7 -3 3 -19 -15 -37 -40 -41 -57 -50 -58
-14 -3 14 24 28 56 30 73 1 17 12 55 24 85 52 137 60 165 56 194 -2 18 -4 22
-5 9z"/>
<path d="M190 2705 c0 -5 5 -17 10 -25 5 -8 10 -10 10 -5 0 6 -5 17 -10 25 -5
8 -10 11 -10 5z"/>
<path d="M240 2674 c0 -29 40 -144 51 -144 5 0 9 -5 9 -11 0 -5 -4 -7 -10 -4
-5 3 -10 3 -10 0 0 -14 40 -83 56 -96 12 -9 9 0 -9 32 -29 49 -36 75 -12 43
21 -28 18 -7 -4 24 -10 15 -30 61 -44 102 -15 41 -27 66 -27 54z"/>
<path d="M890 2641 c-5 -11 -10 -38 -10 -60 0 -22 -5 -52 -12 -66 -8 -18 -8
-31 0 -49 10 -23 6 -27 -66 -74 -42 -27 -94 -62 -114 -77 -36 -27 -38 -27 -63
-11 -24 16 -37 45 -13 30 7 -4 8 -3 4 5 -4 6 -11 9 -15 7 -4 -3 -22 20 -40 50
-46 74 -51 68 -8 -10 41 -74 170 -242 175 -227 2 6 32 -12 67 -40 55 -45 68
-62 104 -140 41 -87 64 -123 35 -54 -19 47 -11 44 17 -5 13 -22 26 -40 30 -40
4 0 28 -43 53 -95 26 -52 51 -95 56 -95 5 0 27 24 48 53 37 49 72 86 72 74 0
-3 -18 -37 -40 -76 -22 -39 -40 -74 -40 -79 0 -5 -12 -7 -27 -4 -35 6 -27 -3
10 -12 22 -5 27 -3 27 12 0 11 9 30 19 44 11 13 39 62 63 108 38 73 43 91 42
146 -1 64 -28 135 -62 161 -15 11 -13 12 16 13 30 0 33 2 27 23 -4 12 -15 34
-25 49 -17 23 -17 27 -4 32 25 9 31 8 65 -21 17 -15 38 -28 46 -29 39 -6 81
-73 90 -144 3 -19 10 -43 15 -54 8 -15 12 -16 20 -5 8 11 8 10 4 -5 -9 -28 31
-84 78 -108 35 -19 38 -23 19 -26 -34 -5 -81 25 -103 66 -15 26 -19 29 -15 12
4 -14 6 -34 6 -45 -1 -27 28 -114 48 -144 8 -13 29 -30 46 -38 l30 -14 -32 4
c-28 3 -31 1 -20 -11 10 -12 9 -14 -3 -10 -8 2 -15 12 -15 20 0 8 -5 22 -11
29 -22 27 -38 65 -55 129 -10 37 -18 54 -18 39 -2 -56 73 -229 98 -229 11 0
12 -3 4 -11 -6 -6 -16 -8 -22 -4 -28 17 -90 173 -93 234 -1 20 -4 -16 -8 -79
-7 -124 -3 -139 46 -195 14 -16 23 -24 20 -17 -9 16 4 15 26 -2 10 -7 15 -16
11 -19 -14 -14 66 -6 97 9 43 22 110 162 146 305 42 170 62 223 97 256 18 17
43 34 57 38 14 4 32 13 40 20 8 7 94 62 190 123 223 141 230 147 331 250 82
85 76 81 -46 -28 -68 -60 -149 -115 -203 -136 l-37 -15 25 20 c16 13 20 21 11
21 -8 0 -22 -7 -31 -15 -15 -14 -24 -11 -91 26 -313 173 -683 204 -1024 85
-83 -29 -95 -31 -95 -16 0 23 -31 48 -53 45 -11 -2 -17 1 -14 8 3 7 12 29 21
50 19 43 13 50 -8 10 -11 -21 -15 -23 -16 -10 0 10 5 27 10 38 6 10 8 19 6 19
-3 0 -10 -9 -16 -19z m40 -159 c0 -15 7 -39 14 -54 17 -33 5 -37 -24 -8 -28
28 -27 112 1 94 5 -3 9 -17 9 -32z m146 -60 c-13 -12 -17 8 -10 40 l9 33 3
-33 c2 -19 1 -36 -2 -40z m131 -55 c3 -23 2 -37 -5 -37 -12 0 -19 21 -21 65
-2 41 18 19 26 -28z m684 -70 c-8 -8 -11 -7 -11 4 0 9 3 19 7 23 4 4 9 2 11
-4 3 -7 -1 -17 -7 -23z m-87 -29 c7 -13 5 -27 -9 -54 -21 -39 -55 -63 -40 -28
4 11 9 37 11 59 2 22 3 42 3 43 2 9 26 -6 35 -20z m-1024 -31 c0 -5 -7 -4 -15
3 -8 7 -15 20 -15 29 1 13 3 13 15 -3 8 -11 15 -24 15 -29z m250 -22 c13 -16
7 -45 -10 -45 -6 0 -14 10 -19 23 -14 36 5 51 29 22z m560 -75 c0 -5 -4 -10
-10 -10 -5 0 -10 5 -10 10 0 6 5 10 10 10 6 0 10 -4 10 -10z m-492 -32 c-3 -7
-12 -14 -21 -16 -12 -2 -15 1 -11 12 7 19 38 22 32 4z m141 -73 c0 -5 -6 1
-14 15 -8 14 -14 30 -14 35 0 6 6 -1 14 -15 8 -14 14 -29 14 -35z m210 -25 c0
-9 -4 -8 -9 5 -5 11 -9 27 -9 35 0 9 4 8 9 -5 5 -11 9 -27 9 -35z m-304 0 c3
-5 1 -10 -4 -10 -6 0 -11 5 -11 10 0 6 2 10 4 10 3 0 8 -4 11 -10z m533 -82
c-3 -7 -18 -14 -34 -16 l-29 -2 25 14 c31 19 43 20 38 4z m-73 -118 c-3 -5
-15 -10 -26 -10 -10 0 -19 5 -19 10 0 6 12 10 26 10 14 0 23 -4 19 -10z m-193
-45 c3 -14 1 -25 -3 -25 -5 0 -9 11 -9 25 0 14 2 25 4 25 2 0 6 -11 8 -25z
m63 -135 l20 -25 -22 19 c-13 11 -23 24 -23 29 0 6 1 8 3 6 1 -2 11 -15 22
-29z"/>
<path d="M75 2530 c5 -26 4 -31 -4 -20 -9 13 -11 13 -11 -2 0 -9 10 -25 23
-35 12 -10 31 -29 40 -43 l18 -25 -5 25 c-2 14 -18 50 -36 80 -29 52 -31 53
-25 20z"/>
<path d="M2755 2519 c-4 -6 -5 -12 -2 -15 2 -3 7 2 10 11 7 17 1 20 -8 4z"/>
<path d="M500 2480 c6 -11 13 -20 16 -20 2 0 0 9 -6 20 -6 11 -13 20 -16 20
-2 0 0 -9 6 -20z"/>
<path d="M2284 2338 l-29 -33 33 29 c17 17 32 31 32 33 0 8 -8 1 -36 -29z"/>
<path d="M2195 2320 c-3 -5 -2 -10 4 -10 5 0 13 5 16 10 3 6 2 10 -4 10 -5 0
-13 -4 -16 -10z"/>
<path d="M2140 2285 c-14 -8 -20 -14 -15 -14 6 0 21 6 35 14 14 8 21 14 15 14
-5 0 -21 -6 -35 -14z"/>
<path d="M2889 2251 c-2 -5 -38 -47 -79 -93 -74 -81 -71 -82 22 -4 44 37 78
90 65 102 -3 3 -7 1 -8 -5z"/>
<path d="M2073 2206 c-29 -24 -65 -54 -80 -66 -21 -15 -22 -18 -6 -10 12 6 49
32 80 59 32 26 65 50 73 54 13 5 13 5 0 6 -8 0 -39 -19 -67 -43z"/>
<path d="M1233 2210 c9 -6 17 -18 17 -25 0 -8 9 -24 21 -36 11 -11 24 -30 29
-42 5 -13 9 -16 9 -7 1 21 -61 113 -79 117 -10 3 -9 1 3 -7z"/>
<path d="M1337 2112 c10 -15 25 -35 33 -44 15 -16 16 -15 18 12 2 30 -12 41
-22 18 -3 -7 -4 -5 -3 6 1 11 -7 22 -21 27 -22 8 -22 8 -5 -19z"/>
<path d="M725 2093 c9 -21 37 -58 62 -83 l47 -45 -43 48 c-23 27 -49 64 -57
83 -8 19 -17 34 -19 34 -3 0 2 -17 10 -37z"/>
<path d="M116 2075 c4 -9 16 -21 28 -27 19 -10 19 -9 -3 16 -28 30 -33 32 -25
11z"/>
<path d="M1920 2058 c-15 -21 -17 -28 -6 -19 16 13 41 51 33 51 -2 0 -14 -15
-27 -32z"/>
<path d="M2819 2059 l-24 -20 28 17 c15 9 27 18 27 20 0 8 -8 4 -31 -17z"/>
<path d="M1871 2047 c-13 -21 -12 -21 5 -5 10 10 16 20 13 22 -3 3 -11 -5 -18
-17z"/>
<path d="M1278 2013 c3 -21 7 -30 12 -23 8 13 2 47 -9 54 -4 3 -5 -11 -3 -31z"/>
<path d="M1827 2031 c-4 -17 -3 -21 5 -13 5 5 8 16 6 23 -3 8 -7 3 -11 -10z"/>
<path d="M200 2010 c0 -5 5 -10 11 -10 5 0 7 5 4 10 -3 6 -8 10 -11 10 -2 0
-4 -4 -4 -10z"/>
<path d="M200 1980 c0 -9 23 -30 33 -30 5 0 4 6 -2 13 -6 8 -9 16 -6 19 3 2
-2 5 -10 5 -8 0 -15 -3 -15 -7z"/>
<path d="M1800 1979 c0 -5 5 -7 10 -4 6 3 10 8 10 11 0 2 -4 4 -10 4 -5 0 -10
-5 -10 -11z"/>
<path d="M1847 1955 c-10 -14 -14 -25 -9 -25 10 0 42 33 42 43 0 14 -16 5 -33
-18z"/>
<path d="M1321 1950 c0 -8 4 -22 9 -30 12 -18 12 -2 0 25 -6 13 -9 15 -9 5z"/>
<path d="M1790 1941 c0 -5 5 -13 10 -16 6 -3 10 -2 10 4 0 5 -4 13 -10 16 -5
3 -10 2 -10 -4z"/>
<path d="M850 1894 c0 -12 18 -34 43 -53 14 -12 17 -11 17 3 0 10 -4 15 -9 12
-5 -4 -19 6 -30 21 -11 16 -21 23 -21 17z"/>
<path d="M1011 1760 c14 -31 19 -36 19 -24 0 6 -7 19 -16 30 -14 18 -14 18 -3
-6z"/>
<path d="M1200 1705 c0 -14 4 -25 9 -25 4 0 6 11 3 25 -2 14 -6 25 -8 25 -2 0
-4 -11 -4 -25z"/>
<path d="M1171 1674 c0 -11 3 -14 6 -6 3 7 2 16 -1 19 -3 4 -6 -2 -5 -13z"/>
<path d="M1696 1621 c-10 -11 -16 -25 -14 -32 2 -7 12 0 22 16 21 32 16 43 -8
16z"/>
<path d="M1130 1600 c-8 -5 -11 -12 -7 -16 4 -4 13 -2 19 4 6 6 10 14 7 16 -2
3 -11 1 -19 -4z"/>
<path d="M1654 1544 c-18 -14 -18 -15 4 -4 12 6 22 13 22 15 0 8 -5 6 -26 -11z"/>
<path d="M1460 1546 c0 -2 7 -9 15 -16 9 -7 15 -8 15 -2 0 5 -7 12 -15 16 -8
3 -15 4 -15 2z"/>
<path d="M1650 1510 c-13 -8 -13 -10 2 -10 9 0 20 5 23 10 8 13 -5 13 -25 0z"/>
<path d="M1567 1498 c2 -5 10 -8 18 -8 8 0 16 3 18 8 3 4 -5 7 -18 7 -13 0
-21 -3 -18 -7z"/>
<path d="M1785 1040 c3 -5 16 -15 28 -21 22 -12 22 -12 3 10 -19 21 -43 30
-31 11z"/>
<path d="M1240 1004 c0 -21 31 -113 39 -119 13 -7 -14 104 -28 118 -7 7 -11 7
-11 1z"/>
<path d="M2707 900 c3 -10 -2 -26 -11 -35 -29 -30 -23 -91 13 -128 24 -25 30
-27 56 -17 38 14 45 26 45 75 0 42 -22 85 -44 85 -7 0 -21 9 -31 20 -23 25
-35 26 -28 0z m54 -90 c10 -45 0 -71 -18 -48 -10 12 -17 59 -14 98 2 26 22 -5
32 -50z"/>
<path d="M1477 790 c8 -10 11 -55 10 -132 -2 -108 10 -133 15 -33 2 24 7 40
12 37 6 -3 6 3 1 14 -5 10 -10 38 -13 61 -2 23 -11 48 -20 55 -15 11 -15 11
-5 -2z"/>
<path d="M1520 719 c0 -9 36 -111 50 -141 7 -15 16 -25 21 -23 10 7 92 -137
115 -202 24 -69 48 -72 38 -6 -11 72 -30 111 -96 191 -33 41 -75 99 -94 130
-19 31 -34 54 -34 51z"/>
<path d="M2580 685 c0 -27 25 -44 41 -28 10 10 -16 53 -32 53 -5 0 -9 -11 -9
-25z m30 -16 c0 -6 -4 -7 -10 -4 -5 3 -10 11 -10 16 0 6 5 7 10 4 6 -3 10 -11
10 -16z"/>
<path d="M1456 668 c-3 -7 -7 -33 -10 -58 -3 -25 -19 -79 -36 -120 -24 -59
-30 -87 -28 -133 3 -57 3 -57 21 -35 10 13 25 37 33 53 l15 30 -20 -25 c-11
-14 -21 -29 -21 -34 0 -5 -2 -7 -5 -4 -3 3 4 25 16 48 16 30 25 71 30 138 5
53 11 109 14 124 6 27 -2 40 -9 16z"/>
<path d="M1678 675 c-3 -4 1 -20 9 -36 8 -16 16 -40 18 -52 8 -58 26 -132 34
-140 11 -11 2 82 -11 106 -5 9 -7 21 -4 25 6 11 -38 104 -46 97z"/>
<path d="M1520 623 c0 -25 6 -48 16 -58 24 -24 25 -16 4 45 l-19 55 -1 -42z"/>
<path d="M2749 568 c-8 -16 -3 -45 8 -45 9 0 10 4 3 11 -15 15 -12 29 6 22 8
-3 12 -2 9 4 -6 9 -23 14 -26 8z"/>
<path d="M1966 513 c17 -15 42 -48 55 -72 17 -30 62 -74 154 -147 71 -58 134
-103 140 -100 14 5 105 -77 105 -95 0 -21 65 -61 91 -57 37 5 31 21 -22 58
-28 19 -77 53 -110 76 -32 22 -69 50 -81 61 -30 27 -53 40 -44 25 4 -7 3 -12
-3 -12 -5 0 -11 3 -13 8 -1 4 -32 30 -67 57 -111 87 -140 115 -151 150 -7 22
-24 41 -48 55 l-37 21 31 -28z m324 -288 c13 -14 21 -25 18 -25 -2 0 -15 11
-28 25 -13 14 -21 25 -18 25 2 0 15 -11 28 -25z"/>
<path d="M1506 445 c3 -38 6 -71 8 -73 10 -10 10 59 -1 98 -12 45 -12 44 -7
-25z"/>
<path d="M1471 484 c0 -11 3 -14 6 -6 3 7 2 16 -1 19 -3 4 -6 -2 -5 -13z"/>
<path d="M1582 480 c0 -14 2 -19 5 -12 2 6 2 18 0 25 -3 6 -5 1 -5 -13z"/>
<path d="M1810 439 c9 -32 20 -50 20 -34 0 5 7 0 16 -11 14 -18 15 -18 8 6 -8
27 -35 69 -46 70 -4 0 -3 -14 2 -31z"/>
<path d="M1580 444 c0 -7 7 -14 15 -18 10 -4 15 -20 15 -53 0 -35 3 -44 10
-33 16 26 11 58 -15 87 -13 15 -25 23 -25 17z"/>
<path d="M1650 425 c0 -5 5 -17 10 -25 5 -8 10 -10 10 -5 0 6 -5 17 -10 25 -5
8 -10 11 -10 5z"/>
<path d="M1466 373 c-4 -18 -30 -63 -58 -100 -57 -77 -111 -179 -105 -196 3
-7 8 -3 12 8 23 66 45 106 89 160 52 65 79 117 73 143 -2 10 -6 4 -11 -15z"/>
<path d="M2690 345 c0 -11 26 -61 35 -67 21 -15 24 -7 5 12 -11 11 -20 26 -20
33 1 6 10 1 20 -12 11 -13 20 -18 20 -12 0 14 -36 51 -50 51 -5 0 -10 -2 -10
-5z"/>
<path d="M1630 325 c-2 -11 -3 -25 -3 -32 0 -8 -7 -7 -26 4 -15 9 -20 10 -10
2 24 -21 30 -57 11 -69 -10 -5 -12 -9 -7 -10 16 0 36 16 34 26 -1 5 1 21 5 36
4 14 6 35 3 45 -4 16 -5 16 -7 -2z"/>
<path d="M127 304 c-4 -4 -7 -14 -7 -23 0 -11 3 -12 11 -4 6 6 10 16 7 23 -2
6 -7 8 -11 4z"/>
<path d="M1701 253 c0 -12 -4 -30 -7 -40 -5 -17 -5 -17 6 0 6 10 9 28 7 40 -4
22 -4 22 -6 0z"/>
<path d="M2120 266 c0 -2 8 -10 18 -17 15 -13 16 -12 3 4 -13 16 -21 21 -21
13z"/>
<path d="M2681 227 c2 -1 13 -9 24 -17 19 -14 19 -14 6 3 -7 9 -18 17 -24 17
-6 0 -8 -1 -6 -3z"/>
<path d="M642 193 c-40 -19 -52 -56 -27 -83 15 -17 16 -24 7 -45 -11 -24 -10
-25 18 -25 23 0 33 6 40 25 9 22 13 24 31 15 12 -7 18 -18 15 -26 -3 -9 1 -14
14 -14 35 0 21 44 -21 66 -22 11 -29 22 -29 45 l0 31 -26 -31 c-24 -29 -54
-41 -54 -22 0 5 18 25 40 45 44 39 42 44 -8 19z"/>
<path d="M1763 156 c-6 -20 -7 -36 -2 -36 10 0 23 44 17 61 -2 6 -9 -5 -15
-25z"/>
<path d="M2320 186 c0 -15 38 -57 44 -48 3 5 -6 20 -19 32 -14 13 -25 20 -25
16z"/>
<path d="M2198 173 c6 -2 12 -11 12 -18 0 -7 30 -36 66 -64 61 -47 71 -51 121
-51 l55 0 -30 25 c-17 14 -37 25 -45 25 -9 0 -19 5 -23 12 -5 8 -1 9 12 4 15
-6 17 -5 6 6 -10 10 -17 10 -32 0 -11 -6 -27 -12 -35 -12 -20 0 -19 27 0 38
13 7 11 11 -12 20 -26 11 -27 11 -9 -3 11 -8 15 -15 9 -15 -6 0 -22 9 -36 20
-14 11 -36 20 -49 19 -12 0 -17 -3 -10 -6z"/>
<path d="M2747 173 c-9 -15 30 -96 49 -103 26 -10 64 6 64 25 0 28 -20 55 -41
55 -11 0 -30 7 -43 16 -13 8 -26 11 -29 7z m103 -84 c0 -19 -32 -8 -61 20 -43
44 -35 54 16 20 25 -17 45 -35 45 -40z"/>
<path d="M886 153 c-6 -14 -5 -15 5 -6 7 7 10 15 7 18 -3 3 -9 -2 -12 -12z"/>
<path d="M1480 119 c0 -11 47 -12 53 -1 3 4 -8 7 -24 8 -16 1 -29 -3 -29 -7z"/>
<path d="M1108 104 c-30 -16 -35 -28 -17 -40 8 -4 7 -9 -2 -15 -11 -7 -11 -9
1 -9 8 0 26 12 39 25 15 17 18 23 7 19 -11 -4 -15 -2 -11 8 4 9 16 14 31 12
13 -1 22 2 18 7 -8 13 -35 10 -66 -7z"/>
<path d="M1208 113 c7 -3 16 -2 19 1 4 3 -2 6 -13 5 -11 0 -14 -3 -6 -6z"/>
<path d="M1218 93 c-10 -2 -18 -9 -18 -14 0 -14 16 -11 30 6 7 8 11 14 9 14
-2 -1 -12 -3 -21 -6z"/>
<path d="M1795 65 c-16 -7 -23 -14 -14 -14 8 -1 24 6 35 14 24 18 18 18 -21 0z"/>
<path d="M2264 71 c5 -7 -2 -11 -16 -12 -13 -1 -6 -5 17 -9 50 -10 53 -7 19
15 -15 9 -23 12 -20 6z"/>
<path d="M1558 63 c7 -3 16 -2 19 1 4 3 -2 6 -13 5 -11 0 -14 -3 -6 -6z"/>
</g>
</svg>
